<svg width="149" height="149" viewBox="0 0 149 149" fill="none" xmlns="http://www.w3.org/2000/svg">
<path d="M124.118 49.6182C124.118 22.2586 101.86 0 74.5 0C47.1405 0 24.8818 22.2586 24.8818 49.6182C24.8818 50.5267 25.3053 51.3645 25.9979 51.9076L59.2784 77.9922H53.5469C45.5236 77.9922 38.9961 84.5197 38.9961 92.543V100.4C38.9961 102.007 40.299 103.311 41.9062 103.311C43.5135 103.311 44.8164 102.007 44.8164 100.4V92.543C44.8164 87.729 48.7329 83.8125 53.5469 83.8125H59.9533V103.615C59.9533 104.706 60.5636 105.705 61.5338 106.204C62.504 106.702 63.6722 106.616 64.5589 105.98L74.5041 98.8525L84.4492 105.98C84.953 106.341 85.5475 106.525 86.145 106.525C86.5993 106.525 87.055 106.419 87.4743 106.204C88.4446 105.705 89.0549 104.706 89.0549 103.615V83.8125H95.4531C100.267 83.8125 104.184 87.729 104.184 92.543V134.449C104.184 139.263 100.267 143.18 95.4531 143.18H53.5469C48.7329 143.18 44.8164 139.263 44.8164 134.449V126.592C44.8164 124.985 43.5135 123.682 41.9062 123.682C40.299 123.682 38.9961 124.985 38.9961 126.592V134.449C38.9961 142.473 45.5236 149 53.5469 149H95.4531C103.476 149 110.004 142.473 110.004 134.449V92.543C110.004 84.5197 103.476 77.9922 95.4531 77.9922H89.7216L123.002 51.9076C123.695 51.3645 124.118 50.5267 124.118 49.6182ZM117.867 43.4609C110.121 39.1055 100.526 39.2141 92.8701 43.7792C92.4405 33.1976 90.8472 23.3793 88.2761 15.67C87.0495 11.9922 85.723 9.14109 84.3631 6.9416C101.825 10.9754 115.327 25.4796 117.867 43.4609ZM74.5 5.82031C76.5092 5.82031 79.8765 8.88209 82.7544 17.5113C85.1291 24.6313 86.6124 33.75 87.039 43.6454C83.1778 41.399 78.8402 40.2707 74.5 40.2707C70.1598 40.2707 65.8222 41.399 61.961 43.6454C62.3876 33.75 63.8709 24.6313 66.2456 17.5113C69.1235 8.88209 72.4908 5.82031 74.5 5.82031ZM86.569 50.3722L74.5041 77.8697L62.4371 50.3669C69.4375 44.6601 79.5704 44.6622 86.569 50.3722ZM56.5001 51.3218L67.9335 77.3805L32.4058 49.5367C39.719 44.4128 49.8411 45.0079 56.5001 51.3218ZM92.5142 51.3081C99.1738 45.007 109.286 44.4163 116.594 49.5367L81.079 77.3706L92.5142 51.3081ZM64.6372 6.9416C63.2773 9.14109 61.9508 11.9919 60.7242 15.67C58.1531 23.3793 56.5598 33.1979 56.1302 43.7795C48.4739 39.2144 38.8791 39.1058 31.1337 43.4611C33.6734 25.4796 47.1745 10.9754 64.6372 6.9416ZM83.2345 97.9486L76.1995 92.9064C75.6926 92.5433 75.0983 92.3617 74.5041 92.3617C73.9098 92.3617 73.3156 92.5433 72.8086 92.9064L65.7736 97.9486V83.8125H83.2345V97.9486Z" fill="#8CA3A8"/>
<path d="M94.2891 134.936C95.8963 134.936 97.1992 133.633 97.1992 132.026C97.1992 130.419 95.8963 129.115 94.2891 129.115H85.2676C83.6603 129.115 82.3574 130.419 82.3574 132.026C82.3574 133.633 83.6603 134.936 85.2676 134.936H94.2891Z" fill="#61B15A"/>
<path d="M41.9062 116.406C42.6716 116.406 43.4224 116.095 43.9637 115.553C44.505 115.012 44.8164 114.261 44.8164 113.496C44.8164 112.731 44.505 111.98 43.9637 111.439C43.4224 110.897 42.6716 110.586 41.9062 110.586C41.1409 110.586 40.3901 110.897 39.8488 111.439C39.3075 111.98 38.9961 112.731 38.9961 113.496C38.9961 114.261 39.3075 115.012 39.8488 115.553C40.3901 116.095 41.1409 116.406 41.9062 116.406Z" fill="#61B15A"/>
<path d="M86 83.7969V104L74.5 94.5L63 104V83.8125" stroke="#61B15A" stroke-width="6" stroke-linejoin="round"/>
</svg>
